<svg id="Layer_1" data-name="Layer 1" xmlns="http://www.w3.org/2000/svg" viewBox="0 0 648 328"><defs><style>.cls-1{fill:none;stroke:#5eb5ae;stroke-miterlimit:10;stroke-width:8px;}</style></defs><title>infinity-new</title><path class="cls-1" d="M488.88,96C406.31,96,346.21,178.45,320,222.45,293.79,178.45,233.69,96,151.12,96,67.78,96,0,167.78,0,256S67.78,416,151.12,416c82.56,0,142.67-82.45,168.88-126.46C346.21,333.55,406.31,416,488.88,416,572.22,416,640,344.22,640,256S572.22,96,488.88,96ZM151.12,384C85.44,384,32,326.58,32,256S85.44,128,151.12,128c78,0,136.47,100.61,150.94,128C287.59,283.39,229.16,384,151.12,384Zm337.76,0c-78,0-136.47-100.61-150.94-128,14.47-27.39,72.91-128,150.94-128C554.56,128,608,185.42,608,256S554.56,384,488.88,384Z" transform="translate(4 -92)"/></svg>