<svg id="Layer_1" data-name="Layer 1" xmlns="http://www.w3.org/2000/svg" viewBox="0 0 519.99 520"><defs><style>.cls-1{fill:none;stroke:#fc642d;stroke-miterlimit:10;stroke-width:8px;}</style></defs><title>map-signs-new</title><path class="cls-1" d="M441.37,192c8.49,0,16.62-4.21,22.63-11.72l43.31-54.14c6.25-7.81,6.25-20.47,0-28.29L464,43.71C458,36.21,449.86,32,441.37,32H272V8a8,8,0,0,0-8-8H248a8,8,0,0,0-8,8V32H56C42.75,32,32,45.43,32,62V162c0,16.57,10.75,30,24,30H240v32H70.63C62.14,224,54,228.21,48,235.71L4.69,289.86c-6.25,7.81-6.25,20.47,0,28.29L48,372.28C54,379.78,62.14,384,70.63,384H240V504a8,8,0,0,0,8,8h16a8,8,0,0,0,8-8V384H456c13.25,0,24-13.43,24-30V254c0-16.57-10.75-30-24-30H272V192Zm6.38,160h-375l-38.4-48L72.8,256H448ZM64.25,64h375l38.4,48L439.2,160H64Z" transform="translate(4 4)"/></svg>