<svg id="Layer_1" data-name="Layer 1" xmlns="http://www.w3.org/2000/svg" viewBox="0 0 648 520"><defs><style>.cls-1{fill:none;stroke:#56a8ba;stroke-miterlimit:10;stroke-width:8px;}</style></defs><title>project-diagram-new</title><path class="cls-1" d="M610,60H514a48,48,0,0,0-48,48v32H210V108a48,48,0,0,0-48-48H66a48,48,0,0,0-48,48v96a48,48,0,0,0,48,48h94.86l88.76,150.21A47.7,47.7,0,0,0,242,428v96a48,48,0,0,0,48,48h96a48,48,0,0,0,48-48V428a48,48,0,0,0-48-48H290a47.46,47.46,0,0,0-14.8,2.57L191.76,241.39A47.7,47.7,0,0,0,210,204V172H466v32a48,48,0,0,0,48,48h96a48,48,0,0,0,48-48V108A48,48,0,0,0,610,60ZM50,204V108A16,16,0,0,1,66,92h96a16,16,0,0,1,16,16v96a16,16,0,0,1-16,16H66A16,16,0,0,1,50,204ZM386,412a16,16,0,0,1,16,16v96a16,16,0,0,1-16,16H290a16,16,0,0,1-16-16V428a16,16,0,0,1,16-16ZM626,204a16,16,0,0,1-16,16H514a16,16,0,0,1-16-16V108a16,16,0,0,1,16-16h96a16,16,0,0,1,16,16Z" transform="translate(-14 -56)"/></svg>