<svg id="Layer_1" data-name="Layer 1" xmlns="http://www.w3.org/2000/svg" viewBox="0 0 584 456"><defs><style>.cls-1{fill:none;stroke:#ebc95a;stroke-miterlimit:10;stroke-width:8px;}</style></defs><title>tachometer-fastest-new</title><path class="cls-1" d="M477.38,304.22l-131,21.83a64.37,64.37,0,1,0,5,31.6l131.2-21.87a16,16,0,1,0-5.25-31.56ZM288,384a32,32,0,1,1,32-32A32,32,0,0,1,288,384Zm0-352C128.94,32,0,160.94,0,320A286.5,286.5,0,0,0,39.06,464.8c5.61,9.62,16.3,15.2,27.44,15.2h443c11.14,0,21.83-5.58,27.44-15.2A286.5,286.5,0,0,0,576,320C576,160.94,447.06,32,288,32ZM509.5,448l-442.8.68A255.67,255.67,0,0,1,32,320C32,178.84,146.84,64,288,64S544,178.84,544,320A253.17,253.17,0,0,1,509.5,448Z" transform="translate(4 -28)"/></svg>